<svg 
  xmlns="http://www.w3.org/2000/svg" 
  x="0px" 
  y="0px"
  width="100" 
  height="100"
  viewBox="0,0,256,256"
>
<g fill="#d6c17a" fill-rule="nonzero" stroke="none" stroke-width="1" stroke-linecap="butt" stroke-linejoin="miter" stroke-miterlimit="10" stroke-dasharray="" stroke-dashoffset="0" font-family="none" font-weight="none" font-size="none" text-anchor="none" style="mix-blend-mode: normal"><g transform="scale(5.12,5.12)"><path d="M16,5c-2.75,0 -5,2.25 -5,5v12c0.00391,0.42578 0.28125,0.80469 0.6875,0.9375l0.1875,0.0625l-0.1875,0.0625c-0.40625,0.13281 -0.68359,0.51172 -0.6875,0.9375v12h-5c-0.03125,0 -0.0625,0 -0.09375,0c-0.51562,0.04688 -0.91016,0.48047 -0.90625,1v3c0,2.75 2.25,5 5,5h22c2.75,0 5,-2.25 5,-5v-5c0,-0.45703 -0.30859,-0.85547 -0.75,-0.96875l-0.125,-0.03125l0.125,-0.03125c0.44141,-0.11328 0.75,-0.51172 0.75,-0.96875v-10c0.00781,-0.26562 -0.09375,-0.52734 -0.28125,-0.71875l-0.28125,-0.28125l0.28125,-0.28125c0.1875,-0.19141 0.28906,-0.45312 0.28125,-0.71875v-1c-0.00391,-0.42578 -0.28125,-0.80469 -0.6875,-0.9375l-0.1875,-0.0625l0.1875,-0.0625c0.40625,-0.13281 0.68359,-0.51172 0.6875,-0.9375v-4h7c0.55078,0 1,-0.44922 1,-1v-3c0,-2.69531 -2.16797,-4.91406 -4.84375,-5c-0.01172,0 -0.01953,0 -0.03125,0c-0.04297,-0.00391 -0.08203,-0.00391 -0.125,0zM16,7h20.125c-0.65625,0.84766 -1.125,1.85156 -1.125,3v2.8125c-0.02734,0.13281 -0.02734,0.27344 0,0.40625v4.0625l-2.3125,0.78125c-0.39062,0.14453 -0.65234,0.51953 -0.65234,0.9375c0,0.41797 0.26172,0.79297 0.65234,0.9375l2.1875,0.75l-0.59375,0.59375c-0.19531,0.1875 -0.30469,0.44922 -0.30469,0.71875c0,0.26953 0.10938,0.53125 0.30469,0.71875l0.71875,0.71875v8.78125l-3.25,0.8125c-0.44141,0.11328 -0.75,0.51172 -0.75,0.96875c0,0.45703 0.30859,0.85547 0.75,0.96875l3.25,0.8125v4.21875c0,1.66797 -1.33203,3 -3,3c-1.66797,0 -3,-1.33203 -3,-3v-3c0,-0.55078 -0.44922,-1 -1,-1h-15v-11.28125l2.3125,-0.78125c0.39063,-0.14453 0.65234,-0.51953 0.65234,-0.9375c0,-0.41797 -0.26172,-0.79297 -0.65234,-0.9375l-2.3125,-0.78125v-11.28125c0,-1.66797 1.33203,-3 3,-3zM39.84375,7c0.05078,0.00391 0.10547,0.00391 0.15625,0c0.03125,0 0.0625,0 0.09375,0c1.62109,0.05078 2.90625,1.36328 2.90625,3v2h-6v-2c0,-1.61328 1.25,-2.91797 2.84375,-3zM18.71875,16c-0.55078,0.07813 -0.9375,0.58984 -0.85937,1.14063c0.07813,0.55078 0.58984,0.9375 1.14063,0.85938h10c0.35938,0.00391 0.69531,-0.18359 0.87891,-0.49609c0.17969,-0.3125 0.17969,-0.69531 0,-1.00781c-0.18359,-0.3125 -0.51953,-0.5 -0.87891,-0.49609h-10c-0.03125,0 -0.0625,0 -0.09375,0c-0.03125,0 -0.0625,0 -0.09375,0c-0.03125,0 -0.0625,0 -0.09375,0zM18.71875,20c-0.55078,0.07813 -0.9375,0.58984 -0.85937,1.14063c0.07813,0.55078 0.58984,0.9375 1.14063,0.85938h6c0.35938,0.00391 0.69531,-0.18359 0.87891,-0.49609c0.17969,-0.3125 0.17969,-0.69531 0,-1.00781c-0.18359,-0.3125 -0.51953,-0.5 -0.87891,-0.49609h-6c-0.03125,0 -0.0625,0 -0.09375,0c-0.03125,0 -0.0625,0 -0.09375,0c-0.03125,0 -0.0625,0 -0.09375,0zM18.71875,24c-0.55078,0.07813 -0.9375,0.58984 -0.85937,1.14063c0.07813,0.55078 0.58984,0.9375 1.14063,0.85938h10c0.35938,0.00391 0.69531,-0.18359 0.87891,-0.49609c0.17969,-0.3125 0.17969,-0.69531 0,-1.00781c-0.18359,-0.3125 -0.51953,-0.5 -0.87891,-0.49609h-10c-0.03125,0 -0.0625,0 -0.09375,0c-0.03125,0 -0.0625,0 -0.09375,0c-0.03125,0 -0.0625,0 -0.09375,0zM18.71875,28c-0.55078,0.07813 -0.9375,0.58984 -0.85937,1.14063c0.07813,0.55078 0.58984,0.9375 1.14063,0.85938h6c0.35938,0.00391 0.69531,-0.18359 0.87891,-0.49609c0.17969,-0.3125 0.17969,-0.69531 0,-1.00781c-0.18359,-0.3125 -0.51953,-0.5 -0.87891,-0.49609h-6c-0.03125,0 -0.0625,0 -0.09375,0c-0.03125,0 -0.0625,0 -0.09375,0c-0.03125,0 -0.0625,0 -0.09375,0zM7,38h20v2c0,1.14844 0.46875,2.15234 1.125,3h-18.125c-1.66797,0 -3,-1.33203 -3,-3z"></path></g></g>
</svg>